<?xml version="1.0" encoding="UTF-8"?>
<svg xmlns="http://www.w3.org/2000/svg" xmlns:xlink="http://www.w3.org/1999/xlink" version="1.1" viewBox="0 0 2000 1500">
  <defs>
    <style>
      .cls-1 {
        fill: none;
      }

      .cls-2 {
        fill: #dd6e7a;
      }

      .cls-3 {
        fill: #88aabe;
      }

      .cls-4, .cls-5 {
        fill: #fff6f3;
      }

      .cls-6 {
        fill: #212121;
      }

      .cls-7 {
        fill: #fee0e0;
      }

      .cls-8 {
        fill: #fec89a;
      }

      .cls-9 {
        fill: #fedbd0;
      }

      .cls-10 {
        fill: #e8a631;
      }

      .cls-11 {
        fill: #424242;
      }

      .cls-5 {
        display: none;
      }

      .cls-12 {
        fill: #ffe4dd;
      }

      .cls-13 {
        fill: #e6bdbd;
      }

      .cls-14 {
        fill: #f3a3ad;
      }

      .cls-15 {
        clip-path: url(#clippath);
      }
    </style>
    <clipPath id="clippath">
      <rect class="cls-1" width="2000" height="1500"/>
    </clipPath>
  </defs>
  <!-- Generator: Adobe Illustrator 28.7.1, SVG Export Plug-In . SVG Version: 1.2.0 Build 142)  -->
  <g>
    <g id="Layer_1">
      <g class="cls-15">
        <g>
          <rect class="cls-8" width="2000" height="1500"/>
          <path class="cls-12" d="M-11.5,1053c525.4,0,93.5-937.5,745.1-937.5S1353.3,344.3,1323.6-7.8c-7.8-91.5-1342.5-2.2-1342.5-2.2,0,0-273,1063,7.4,1063Z"/>
          <path class="cls-9" d="M2443,1500c-476.9-212.1-766.9-494.9-1271.7-393.9-131.3,26.3-363.3,151.5-363.3,393.9h1635Z"/>
          <path class="cls-3" d="M47.5,949.8c37.6,201.6-52,444.3-101.5,540.5,79,24.5,180.5,0,348.3-41.9,167.8-41.9,268.9-227.2,394.9-382.8,126-155.7,160.3-246.9,61.6-207.4-98.7,39.5-197.4,207.4-303.7,395.1-85,150.1-290.5,214-382.6,227.2,300.9-111.4,340.8-530.6,407.5-622.2,66.7-91.7,217.2-310.9,217.2-402.2s-81.7-81.8-150.8-24.9c-69.1,56.9-202.2,286.4-244,570.5-33.5,227.3-160.6,379.4-219.9,427.1,55.9-70.7,159-242.3,123.6-363.1-44.2-150.9,24.5-301,96.3-424.7,71.9-123.7,189.9-589.8,0-577.6-189.9,12.2-177.7,318.4-167.8,405,9.9,86.5-126,229.5-79,481.6Z"/>
          <path class="cls-5" d="M1733.1,326.3c0,13.7-17.7,24.9-39.6,24.9s-39.6-11.2-39.6-24.9,17.7-24.9,39.6-24.9,39.6,11.1,39.6,24.9Z"/>
          <path class="cls-5" d="M1809.3,462.8c0,12.9-14.4,23.5-32.3,23.5s-32.3-10.5-32.3-23.5,14.4-23.5,32.3-23.5,32.3,10.5,32.3,23.5Z"/>
          <path class="cls-5" d="M1580.4,458.4c0,13.7-13.8,24.9-30.8,24.9s-30.8-11.2-30.8-24.9,13.8-24.9,30.8-24.9c17.1,0,30.8,11.1,30.8,24.9Z"/>
          <path class="cls-5" d="M1407.2,545c0,11.4-12.5,20.5-27.9,20.5s-27.9-9.2-27.9-20.5,12.5-20.5,27.9-20.5,27.9,9.2,27.9,20.5Z"/>
          <path class="cls-5" d="M1592.2,635.9c0,11.4-16.5,20.5-36.7,20.5s-36.7-9.2-36.7-20.5,16.5-20.5,36.7-20.5,36.7,9.2,36.7,20.5Z"/>
          <path class="cls-5" d="M1658.2,571.4c7.3,0,13.2-3.9,13.2-8.8s-5.9-8.8-13.2-8.8-13.2,3.9-13.2,8.8,5.9,8.8,13.2,8.8Z"/>
          <path class="cls-5" d="M1785.9,732.8c0,21-20.3,38.1-45.5,38.1s-45.5-17.1-45.5-38.1,20.3-38.1,45.5-38.1,45.5,17.1,45.5,38.1Z"/>
          <path class="cls-4" d="M1718.4,815c0,11.4-10.5,20.5-23.5,20.5s-23.5-9.2-23.5-20.5,10.5-20.5,23.5-20.5,23.5,9.2,23.5,20.5Z"/>
          <path class="cls-5" d="M1926.8,801.8c0,10.6-9.9,19.1-22,19.1s-22-8.5-22-19.1,9.9-19.1,22-19.1,22,8.5,22,19.1Z"/>
          <path class="cls-5" d="M2003.1,719.6c0,12.2-19,22-42.5,22s-42.5-9.9-42.5-22,19-22,42.5-22,42.5,9.9,42.5,22Z"/>
          <path class="cls-5" d="M1819.6,603.6c17,0,30.8-11.2,30.8-24.9s-13.8-24.9-30.8-24.9-30.8,11.2-30.8,24.9,13.8,24.9,30.8,24.9Z"/>
          <path class="cls-5" d="M1959,578.7c0,8.9-9.2,16.1-20.5,16.1s-20.5-7.2-20.5-16.1,9.2-16.1,20.5-16.1,20.5,7.2,20.5,16.1Z"/>
          <path class="cls-5" d="M2011.8,682.9c9.7,0,17.6-7.2,17.6-16.1s-7.9-16.1-17.6-16.1-17.6,7.2-17.6,16.1,7.9,16.1,17.6,16.1Z"/>
          <path class="cls-5" d="M1963.4,500.9c18.6,0,33.7-7.9,33.7-17.6s-15.1-17.6-33.7-17.6-33.7,7.9-33.7,17.6,15.1,17.6,33.7,17.6Z"/>
          <path class="cls-5" d="M1915,371.8c0,9.7-8.5,17.6-19.1,17.6s-19.1-7.9-19.1-17.6,8.5-17.6,19.1-17.6,19.1,7.9,19.1,17.6Z"/>
          <path class="cls-5" d="M1551,370.4c0,10.6-11.2,19.1-24.9,19.1s-24.9-8.5-24.9-19.1,11.2-19.1,24.9-19.1,24.9,8.5,24.9,19.1Z"/>
          <path class="cls-5" d="M1454.2,473c0,7.3-9.2,13.2-20.5,13.2s-20.5-5.9-20.5-13.2,9.2-13.2,20.5-13.2,20.5,5.9,20.5,13.2Z"/>
          <path class="cls-5" d="M1445.4,672.7c0,10.6-7.2,19.1-16.1,19.1s-16.1-8.5-16.1-19.1,7.2-19.1,16.1-19.1,16.1,8.5,16.1,19.1Z"/>
          <path class="cls-5" d="M1551,773.9c19.5,0,35.2-8.6,35.2-19.1s-15.8-19.1-35.2-19.1-35.2,8.6-35.2,19.1,15.8,19.1,35.2,19.1Z"/>
          <path class="cls-5" d="M1715.4,668.3c9.7,0,17.6-6.6,17.6-14.7s-7.9-14.7-17.6-14.7-17.6,6.6-17.6,14.7,7.9,14.7,17.6,14.7Z"/>
          <path class="cls-5" d="M1871,684.4c0,7.3-7.2,13.2-16.1,13.2s-16.1-5.9-16.1-13.2,7.2-13.2,16.1-13.2,16.1,5.9,16.1,13.2Z"/>
          <path class="cls-5" d="M1926.8,923.6c0,8.1-5.9,14.7-13.2,14.7s-13.2-6.6-13.2-14.7,5.9-14.7,13.2-14.7,13.2,6.6,13.2,14.7Z"/>
          <path class="cls-5" d="M2067.7,938.3c0,12.9-17.7,23.5-39.6,23.5s-39.6-10.5-39.6-23.5,17.7-23.5,39.6-23.5,39.6,10.5,39.6,23.5Z"/>
          <path class="cls-5" d="M1929.7,998.5c0,2.5-5.3,4.4-11.7,4.4s-11.7-1.9-11.7-4.4,5.3-4.4,11.7-4.4,11.7,1.9,11.7,4.4Z"/>
          <path class="cls-5" d="M1777.1,914.8c9.7,0,17.6-8.6,17.6-19.1s-7.9-19.1-17.6-19.1-17.6,8.6-17.6,19.1,7.9,19.1,17.6,19.1Z"/>
          <path class="cls-5" d="M1809.3,832.7c6.5,0,11.7-2,11.7-4.4s-5.2-4.4-11.7-4.4-11.7,2-11.7,4.4,5.2,4.4,11.7,4.4Z"/>
          <path class="cls-5" d="M2001.6,850.2c17,0,30.8-9.2,30.8-20.5s-13.8-20.5-30.8-20.5-30.8,9.2-30.8,20.5,13.8,20.5,30.8,20.5Z"/>
          <path class="cls-5" d="M1380.8,454c0,8.1-12.5,14.7-27.9,14.7s-27.9-6.6-27.9-14.7,12.5-14.7,27.9-14.7,27.9,6.6,27.9,14.7Z"/>
          <path class="cls-5" d="M1448.3,370.4c0,5.6-8.5,10.3-19.1,10.3s-19.1-4.6-19.1-10.3,8.5-10.3,19.1-10.3,19.1,4.6,19.1,10.3Z"/>
          <path class="cls-5" d="M1553.9,307.2c22.7,0,41.1-8.6,41.1-19.1s-18.4-19.1-41.1-19.1-41.1,8.6-41.1,19.1,18.4,19.1,41.1,19.1Z"/>
          <path class="cls-5" d="M1652.3,471.5c12.2,0,22-5.2,22-11.7s-9.9-11.7-22-11.7-22,5.2-22,11.7,9.8,11.7,22,11.7Z"/>
          <path class="cls-5" d="M1777.1,395.3c9.7,0,17.6-5.9,17.6-13.2s-7.9-13.2-17.6-13.2-17.6,5.9-17.6,13.2,7.9,13.2,17.6,13.2Z"/>
        </g>
      </g>
      <g id="SVGRepo_iconCarrier">
        <path class="cls-10" d="M1800.7,789.1s-22.6,39.3-34.9,54.1c-9.7,11.7-49,14.8-73,19.1-20.9,3.7-47.9,3.6-50.5,11.6-2.6,8.1,6.3,12.3,27.4,12.9,21.1.5,174,0,184.7,0s18.5-9.4-3.6-19.7c-19.4-9.1-26.8-9.9-19-21.6,7.8-11.8,44.1-50.3,44.1-50.3,0,0-75.3-6-75.3-6Z"/>
        <path class="cls-14" d="M1602.5,317.4s12.7,17.7,11.5,33.8c-.8,10.4,0,26.4-48.7,47.1-59,25.2-88.6,52.3-88.1,100,.6,67,39.6,101.5,56.9,114.9,17.3,13.3,8.6,50.9,52.8,95.2,63.4,63.6,98.6,55.4,131.4,70.5,12.4,5.7,14,6,29,27.7,11.6,16.7,37,43.3,71.7,43.3s51.5-38.9,69-47.4c17.5-8.4,142.6-19.4,156.9-126.5,11.1-83.9-79.8-215-227.8-248.8-66.4-15.2-108.7,4.2-131.3,10-5.4,1.4-18.9,7.1-18.9,7.1-4.2-11.3,15-22.1,28.8-35.1,15.9-14.9,33.9-31.1,42.6-47.1,44-81.2-21.3-167.8-99.8-145.4-28,8-36.1,100.4-36.1,100.4Z"/>
        <path class="cls-7" d="M1952.2,495.8s-9.5-38.3,18.1-56.1c20-13,41.9-11.1,56.2,3.9,7.5-6.7,15.6-13.3,25.2-15.9,27.1-7.2,55.8,0,69.4,26.4,18.4,35.9,2.3,54.7-19.8,76.4,0,0,26.7,12.4,27.7,56.8.9,39.3-13.2,79.9-67.3,95.8-21.1,6.2-82.5,10.5-105.9-35.1-11.3-22-1.5-35,3.3-41.3,16.3-21.2,42.3-10.3,42.3-10.3,2.3-62.9-49-100.8-49-100.8Z"/>
        <path class="cls-13" d="M2080.9,595.3c0-40.6-39.8-40.3-39.8-40.3,0,0,30.2,10.5,15,40.3-8.1,16-32.2,10.8-43.8-1.5-6.2-6.6-13.8-26-13.8-26,0,0,2.7,17.4,2.7,28.6,0,0-26-11-42.3,10.3-.8,1-1.8,2.4-2.8,3.9,19.7-19,39.8-3.4,50.9,9.7,13.8,16.3,30.9,17,43.7,14.1,14.9-3.4,30.2-14.9,30.2-39.1Z"/>
        <path class="cls-13" d="M2103.8,530.7c45.5-29.1,17.2-76.6,17.2-76.6,0,0,8.1,35-16.1,49.5-14,8.4-36.9,7-41.2-17.3-2.7-15.5,14.5-22.7,14.5-22.7,0,0-13-3.4-23.6,5.3-12.6,10.3-15.4,29-7.5,43.4,11.8,21.7,37.4,28.5,56.7,18.4Z"/>
        <path class="cls-2" d="M1840.7,675.9c8.8-18.2,28.1-46.6,9.2-90.6-3.2-7.5-9.5-9.7-9.8-2.2-.3,7.5,4.3,23.9,4.3,33.9s.8,19.5-4.7,26.6c-1.5,1.9-15.8-2.9-34-32.9-1.3-2.2-5.4-8.9-8.8-6.2-.7.5-3.6,5.7,3.2,22.3,8.4,20.4,31.5,29.4,23,62-1,3.9-22.9-5.7-40-32.6-3.7-5.9-6.6-10.3-10.8-9.3-4.3.9-.8,13.2,1.8,19.6,7.6,18.8,18.7,27.5,29.8,34.3,22.9,14.1,26.4,27.9,25.8,30.2s-30.2,12.8-60.1-14.1c-39.1-35.1-36.9-91.6-37.9-107.7-1.2-22,.2-40-16.9-57.4-9.2-9.3-23.4-9.1-27.2-8.2-1.7.4-4.3,2.6-4.3,5.3s1.2,4.8,5,5.9c17.6,5.5,25.1,13,25.2,55.4.4,117.9,65.7,140.5,99.5,141.9,20.9.9,37.9-9.5,39-14.1,1.1-4.5-5.8-12.6-9.1-21.9-9.5-26.4-3.1-38.1-2.1-40.2Z"/>
        <path class="cls-7" d="M1532.1,232.3c25.8,10,46,15.1,63.2,10.7,14.9-3.9,34.4-32.9,50.5-20.7,5.2,3.9,9.5,8.7,13,14.2,10.8,17,15.9,33.4,14.2,58.2-.5,7.8-10.2,60.1-43.8,62.7-12.1.9-23.6-5.4-32.5-13.9-8.9-8.4-16.8-16.5-32-26.3-21-13.4-40.9-15.3-64.1-24.2,0,0,31.6-60.7,31.6-60.7Z"/>
        <path class="cls-10" d="M1500.2,222c11.3-3.5,29.6-1.4,42.2,13.1,31.5,36.4-2.3,69.3-20.7,70.1-24.7,1.1-27.6-6.2-41.5-11-10.9-3.7-18.7,1.8-26.2,6.4-4,2.4-9.2-1.2-8-5.8,13.1-49.1,31.8-65.9,54.3-72.8Z"/>
        <ellipse class="cls-6" cx="1628.6" cy="273" rx="16.1" ry="12" transform="translate(516.4 1493.6) rotate(-57.2)"/>
        <path class="cls-11" d="M1594.2,299c-10.1-3.9-52.7-14.9-83.1-16.8-26.7-1.6-44.2,11.2-45,11.5-.9.4-1.6.9-2.2,1.5,4.5-1.8,9.5-2.6,15.5-1.3,7-2.2,17.7-4.5,30.6-3.6,30.6,2.1,93.3,21.2,93.9,21.4.5.1,10.1,4,9.5.6,0,0,0-6.1-19.2-13.4Z"/>
      </g>
    </g>
  </g>
</svg>