<svg width="1500" height="2000" viewBox="0 0 1500 2000" fill="none" xmlns="http://www.w3.org/2000/svg">
<g clip-path="url(#clip0_1_62)">
<rect width="1500" height="2000" transform="translate(1500 2000) rotate(-180)" fill="#FFF6F3"/>
<path d="M937.16 538.543C774.018 394.931 757.913 119.676 770.254 -1.4222e-07L1500 -3.20405e-05L1500 1615C1227.68 1571.69 1129.17 1392.8 1116.62 1151.15C1104.07 909.497 1141.09 718.057 937.16 538.543Z" fill="#FEDBD0"/>
<path d="M928.14 209.36C954.269 157.078 956.524 85.2671 954.385 55.8972C928.14 -195.595 448.722 -84.1448 396.232 -48.5508C343.741 -12.9568 305.247 163.846 369.986 209.36C434.725 254.873 467.969 399 624.859 399C781.748 399 895.479 274.713 928.14 209.36Z" fill="#B2CDDD"/>
<path d="M1.70291e-05 1330C2.11403 1330.58 4.49225 1330.69 6.23631 1331.79C34.4055 1350 63.0503 1367.51 90.2682 1386.93C105.753 1398.01 122.084 1407.98 135.878 1421.7C164.734 1450.5 195.705 1477.1 221.126 1509.49C244.063 1538.72 269.484 1566.21 286.079 1599.66C301.405 1630.52 321.911 1658.64 333.697 1691.46C341.677 1713.67 352.617 1734.78 361.179 1756.78C373.229 1787.8 384.221 1819.3 390.775 1851.9C398.015 1887.83 404.516 1923.97 404.78 1960.9C404.886 1973.94 406.26 1986.97 407 2000C271.333 2000 135.72 2000 0.0528896 2000C4.91152e-05 1776.72 7.26691e-06 1553.33 1.70291e-05 1330ZM195.335 1611.63C196.656 1617.65 197.66 1625.46 200.302 1632.63C201.412 1635.59 206.01 1639.12 208.97 1639.02C211.718 1638.96 216.422 1634.58 216.633 1631.89C217.585 1619.44 217.796 1606.88 217.109 1594.43C216.845 1589.37 211.982 1586.52 206.592 1586.41C201.36 1586.31 198.558 1589.9 197.554 1594.33C196.497 1599.34 196.233 1604.56 195.335 1611.63ZM225.142 1777.46C224.508 1770.65 224.349 1764.95 223.292 1759.41C222.288 1754.3 218.747 1750.44 213.251 1750.97C207.49 1751.55 203.579 1755.19 203.949 1761.52C204.689 1774.13 205.482 1786.74 206.592 1799.3C206.962 1803.52 209.498 1806.63 214.202 1806.79C219.064 1806.95 221.337 1803.89 222.024 1799.62C223.292 1791.97 224.191 1784.21 225.142 1777.46ZM317.313 1874.75C318.476 1880.6 319.269 1888.99 321.964 1896.75C323.074 1899.97 327.936 1903.5 331.53 1903.98C336.709 1904.66 339.14 1899.33 339.193 1895.01C339.299 1883.24 339.14 1871.37 337.713 1859.71C337.343 1856.6 332.534 1852.32 329.151 1851.64C324.342 1850.64 319.586 1853.59 318.529 1859.29C317.736 1863.51 317.789 1867.94 317.313 1874.75ZM259.125 1726.76C258.861 1726.81 258.596 1726.86 258.332 1726.91C259.653 1734.14 260.499 1741.53 262.402 1748.65C263.67 1753.29 267.898 1756.3 272.549 1754.4C275.561 1753.19 279.102 1749.34 279.419 1746.33C280.318 1738.15 279.895 1729.76 279.472 1721.53C279.314 1718.63 278.415 1714.73 276.407 1713.2C273.236 1710.77 268.691 1708.5 265.097 1708.98C262.772 1709.29 260.499 1714.36 259.336 1717.68C258.385 1720.37 259.125 1723.7 259.125 1726.76ZM103.904 1815.81C104.274 1818.93 104.908 1824.52 105.701 1830.11C106.44 1835.39 109.241 1840.08 114.738 1839.13C118.173 1838.55 122.031 1834.65 123.775 1831.27C128.955 1821.25 125.414 1810.7 123.035 1800.73C122.401 1797.98 116.218 1794.61 112.994 1794.97C109.717 1795.34 106.071 1799.56 104.274 1802.99C102.794 1805.74 103.904 1809.8 103.904 1815.81ZM112.888 1488.12C113.628 1493.34 114.051 1500.42 115.848 1507.12C116.588 1509.86 120.393 1513.45 122.877 1513.5C125.202 1513.55 129.377 1509.6 129.642 1507.06C130.963 1495.4 131.809 1483.53 131.386 1471.82C131.28 1468.97 125.995 1464.75 122.454 1463.91C117.486 1462.69 114.579 1467.28 113.787 1471.87C113.047 1476.62 113.258 1481.53 112.888 1488.12ZM55.757 1787.32C55.2285 1782.31 55.1757 1778.78 54.383 1775.4C53.1674 1770.28 49.8906 1766.59 44.3942 1766.43C38.6335 1766.27 35.7268 1770.34 34.5641 1775.4C32.2387 1785.32 34.9869 1794.66 39.8491 1803.05C42.7559 1808.06 48.9921 1807.58 51.4761 1802.26C53.9072 1797.24 54.6471 1791.49 55.757 1787.32ZM253.998 1926.19C255.372 1930.25 256.694 1936.27 259.442 1941.54C263.141 1948.56 270.646 1948.35 272.919 1940.8C275.086 1933.58 275.191 1925.56 275.138 1917.91C275.086 1912.31 272.02 1907.56 265.52 1907.67C259.336 1907.78 256.588 1912.42 255.003 1917.69C254.421 1919.75 254.474 1922.02 253.998 1926.19ZM152.473 1927.98C153.477 1932.99 153.636 1938.43 155.803 1942.91C157.177 1945.71 161.458 1948.51 164.576 1948.66C167.007 1948.82 170.971 1945.34 171.869 1942.7C173.507 1937.95 173.877 1932.57 173.877 1927.45C173.877 1916.64 169.755 1910.78 163.043 1911.2C155.697 1911.68 153.107 1916.01 152.473 1927.98ZM101.314 1658.85C102.107 1664.76 102.318 1670.09 103.639 1675.05C105.119 1680.64 110.563 1681.8 114.896 1677.95C119.864 1673.52 124.357 1654.69 121.978 1648.51C120.234 1644.03 117.222 1641.28 112.148 1641.44C107.075 1641.65 104.168 1644.5 103.058 1649.25C102.265 1652.68 101.79 1656.11 101.314 1658.85ZM39.1621 1947.29C49.5736 1939.17 50.102 1928.35 49.5207 1917.54C49.3621 1914.79 45.9797 1910.41 43.5486 1910.1C40.3775 1909.62 35.7797 1911.42 33.4014 1913.84C25.5796 1921.86 28.3806 1939.48 39.1621 1947.29ZM32.0802 1613.48C32.8729 1616.59 33.6128 1622.34 35.8854 1627.41C37.0481 1629.99 41.0647 1632.95 43.6015 1632.74C46.2968 1632.53 50.0493 1629.26 50.9477 1626.56C52.5861 1621.71 52.6918 1616.28 52.9032 1611.11C53.2203 1603.61 48.9393 1597.49 43.8657 1597.39C38.4749 1597.18 32.2916 1604.46 32.0802 1613.48ZM54.9115 1448.02C54.4887 1445.28 54.3301 1441.75 53.3788 1438.47C52.0576 1434.15 49.8378 1430.56 44.2886 1430.77C38.2108 1430.98 35.4626 1434.99 35.1983 1439.95C34.9341 1445.49 35.5682 1451.35 37.2594 1456.57C38.2635 1459.63 41.8045 1463.17 44.8698 1463.96C49.8906 1465.22 52.586 1460.79 54.013 1456.52C54.7529 1454.09 54.5944 1451.35 54.9115 1448.02Z" fill="#B2CDDD"/>
<path opacity="0.2" d="M185.071 533.88C98.6401 456.837 -126.877 633.975 123.886 749.029C171.436 770.9 322.342 656.37 185.071 533.88Z" fill="#FC981F"/>
<path d="M-18.2611 384.12C-12.097 347.532 37.968 329.891 70.0636 329.909C108.388 329.937 124.037 355.748 111.662 390.511C102.591 415.946 79.1586 450.423 49.8069 453.849C21.3176 457.324 -18.5152 411.184 -18.2611 384.12C-18.1061 372.363 -36.4684 371.227 -36.5421 383.075C-36.9238 419.908 7.94114 473.343 46.3959 472.6C89.0096 471.749 123.305 422.84 132.369 385.466C157.917 279.39 -22.3343 298.239 -36.5421 383.075C-38.513 394.815 -20.2221 395.688 -18.2611 384.12Z" fill="#FFE4DD"/>
<path d="M1017.89 2142C1017.12 2112.42 1007.2 2086.26 988.127 2063.76C975.902 2049.29 966.808 2032.99 959.898 2015.63C943.362 1974.17 970.351 1927.88 1015.94 1918.31C1021.67 1917.07 1027.52 1916.13 1033.19 1914.77C1068.5 1906.56 1090.71 1867.59 1084.51 1834.46C1082.68 1824.83 1080.91 1815.21 1078.66 1805.7C1075.59 1792.59 1067.74 1782.85 1056.51 1775.7C1039.98 1762.95 1019.72 1760.29 1000.41 1754.86C993.974 1751.37 987.005 1748.71 981.218 1744.34C963.087 1730.59 958.008 1711.51 959.957 1689.66C962.91 1657.18 974.662 1628.13 993.088 1601.5C996.159 1597.13 998.462 1592.23 1001.06 1587.56C1028.99 1548.71 1063.54 1515.87 1097.97 1483.04C1118.52 1463.49 1140.73 1445.72 1162.05 1426.94C1186.26 1405.56 1211.54 1385.19 1234.22 1362.28C1273.78 1322.36 1293.86 1271.93 1306.44 1218.19C1307.45 1214 1307.27 1209.57 1307.62 1205.08C1295.69 1200.18 1284.18 1196.05 1273.19 1190.79C1240 1174.85 1212.13 1153.41 1199.2 1117.1C1194.65 1078.24 1207.64 1045.88 1234.87 1018.3C1257.37 995.508 1289.91 991.374 1314.06 1021.08C1315.3 1022.61 1316.72 1023.97 1318.02 1025.45C1335.32 1062.3 1342.29 1100.92 1337.15 1141.48C1335.08 1157.96 1332.9 1174.38 1330.54 1192.39C1349.55 1195.87 1367.68 1197.7 1386.35 1196.46C1449.54 1192.27 1507.23 1172.37 1560.27 1138.12C1562.28 1136.82 1564.76 1136.11 1567 1135.11C1567 1142.02 1567 1148.87 1567 1155.77C1560.8 1158.37 1554.24 1160.38 1548.46 1163.75C1500.5 1191.56 1448.77 1207.45 1393.73 1211.46C1373.83 1212.94 1353.63 1210.16 1333.61 1209.39C1331.66 1209.33 1329.71 1209.57 1326.7 1209.69C1321.97 1225.99 1317.84 1242.58 1312.29 1258.7C1306.09 1276.77 1299.71 1294.9 1291.56 1312.14C1281.23 1333.99 1265.58 1352.36 1249.87 1370.66C1225.12 1399.54 1194.29 1421.45 1165.59 1445.84C1140.97 1466.74 1117.11 1488.71 1093.96 1511.27C1072.93 1531.76 1052.79 1553.31 1033.19 1575.22C1018.84 1591.22 1006.55 1609 997.222 1628.6C983.521 1649.51 976.493 1672.66 977.025 1697.4C977.379 1712.4 979.387 1728.05 997.104 1734.37C1005.19 1737.49 1012.99 1741.45 1021.32 1743.58C1041.22 1748.66 1060.18 1755.56 1076.65 1768.14C1095.79 1791 1104.59 1817.57 1102.82 1847.04C1100.16 1891.68 1074.65 1925.87 1028.82 1932.37C1003.25 1936.03 985.115 1947.37 976.316 1972.76C969.524 1992.3 975.371 2009.61 983.934 2026.26C989.899 2037.95 997.399 2049.17 1005.84 2059.21C1026.28 2083.36 1034.37 2111.35 1035.61 2142C1029.7 2142 1023.8 2142 1017.89 2142ZM1301.66 1034.54C1290.44 1015.23 1276.38 1011.04 1258.07 1022.38C1230.2 1039.56 1216.91 1065.43 1214.9 1097.61C1213.66 1111.72 1219.33 1123.53 1227.48 1134.34C1248.86 1162.62 1278.51 1177.74 1312.53 1188.08C1314.59 1180.1 1316.78 1173.14 1318.19 1165.93C1323.75 1137.11 1322.68 1108.06 1317.9 1079.48C1315.3 1064.01 1313.59 1047.18 1301.66 1034.54Z" fill="#B2CDDD"/>
</g>
<defs>
<clipPath id="clip0_1_62">
<rect width="1500" height="2000" fill="white" transform="translate(1500 2000) rotate(-180)"/>
</clipPath>
</defs>
</svg>
